<mxfile host="app.diagrams.net" modified="2021-02-08T08:58:40.793Z" agent="5.0 (Macintosh; Intel Mac OS X 10_15_7) AppleWebKit/537.36 (KHTML, like Gecko) Chrome/88.0.4324.150 Safari/537.36" etag="bL9jnP1bLo9fJ4qrzQkp" version="14.2.9" type="github">
  <diagram id="LfdvJhWSQKbFlnKuJ_QU" name="Page-1">
    <mxGraphModel dx="2210" dy="771" grid="1" gridSize="10" guides="1" tooltips="1" connect="1" arrows="1" fold="1" page="1" pageScale="1" pageWidth="827" pageHeight="1169" math="0" shadow="0">
      <root>
        <mxCell id="0" />
        <mxCell id="1" parent="0" />
        <mxCell id="mI80UNPD9SsAqwTJCJn--1" value="" style="rounded=0;whiteSpace=wrap;html=1;fillColor=#fff2cc;strokeColor=#d6b656;" parent="1" vertex="1">
          <mxGeometry x="480" y="70" width="500" height="240" as="geometry" />
        </mxCell>
        <mxCell id="azLQEmrgc9rkgrBa98ej-1" value="" style="rounded=0;whiteSpace=wrap;html=1;fillColor=#dae8fc;strokeColor=#6c8ebf;" parent="1" vertex="1">
          <mxGeometry x="-140" y="80" width="430" height="220" as="geometry" />
        </mxCell>
        <mxCell id="azLQEmrgc9rkgrBa98ej-2" value="" style="rounded=0;whiteSpace=wrap;html=1;fillColor=#f8cecc;strokeColor=#b85450;" parent="1" vertex="1">
          <mxGeometry x="-100" y="140" width="120" height="60" as="geometry" />
        </mxCell>
        <mxCell id="azLQEmrgc9rkgrBa98ej-3" value="" style="rounded=0;whiteSpace=wrap;html=1;fillColor=#f5f5f5;strokeColor=#666666;fontColor=#333333;" parent="1" vertex="1">
          <mxGeometry x="-120" y="230" width="120" height="60" as="geometry" />
        </mxCell>
        <mxCell id="azLQEmrgc9rkgrBa98ej-4" value="" style="rounded=0;whiteSpace=wrap;html=1;fillColor=#ffe6cc;strokeColor=#d79b00;" parent="1" vertex="1">
          <mxGeometry x="60" y="110" width="120" height="60" as="geometry" />
        </mxCell>
        <mxCell id="azLQEmrgc9rkgrBa98ej-5" value="" style="rounded=0;whiteSpace=wrap;html=1;fillColor=#d5e8d4;strokeColor=#82b366;" parent="1" vertex="1">
          <mxGeometry x="150" y="210" width="120" height="60" as="geometry" />
        </mxCell>
        <mxCell id="azLQEmrgc9rkgrBa98ej-6" value="Kube Cluster" style="text;html=1;strokeColor=none;fillColor=none;align=center;verticalAlign=middle;whiteSpace=wrap;rounded=0;" parent="1" vertex="1">
          <mxGeometry x="160" y="280" width="130" height="20" as="geometry" />
        </mxCell>
        <mxCell id="azLQEmrgc9rkgrBa98ej-11" style="rounded=0;orthogonalLoop=1;jettySize=auto;html=1;exitX=0;exitY=0.5;exitDx=0;exitDy=0;" parent="1" source="azLQEmrgc9rkgrBa98ej-17" target="azLQEmrgc9rkgrBa98ej-9" edge="1">
          <mxGeometry relative="1" as="geometry" />
        </mxCell>
        <mxCell id="azLQEmrgc9rkgrBa98ej-12" style="edgeStyle=orthogonalEdgeStyle;rounded=0;orthogonalLoop=1;jettySize=auto;html=1;" parent="1" edge="1">
          <mxGeometry relative="1" as="geometry">
            <mxPoint x="720" y="117.5" as="sourcePoint" />
            <mxPoint x="840" y="117.5" as="targetPoint" />
          </mxGeometry>
        </mxCell>
        <mxCell id="azLQEmrgc9rkgrBa98ej-7" value="VM" style="rounded=0;whiteSpace=wrap;html=1;fillColor=#1ba1e2;strokeColor=#006EAF;fontColor=#ffffff;" parent="1" vertex="1">
          <mxGeometry x="520" y="102.5" width="190" height="70" as="geometry" />
        </mxCell>
        <mxCell id="azLQEmrgc9rkgrBa98ej-8" value="DNS Proxy" style="rounded=0;whiteSpace=wrap;html=1;" parent="1" vertex="1">
          <mxGeometry x="850" y="107.5" width="120" height="60" as="geometry" />
        </mxCell>
        <mxCell id="azLQEmrgc9rkgrBa98ej-9" value="istio ingress&lt;br&gt;gateway" style="rounded=0;whiteSpace=wrap;html=1;fillColor=#e1d5e7;strokeColor=#9673a6;" parent="1" vertex="1">
          <mxGeometry x="230" y="140" width="120" height="60" as="geometry" />
        </mxCell>
        <mxCell id="azLQEmrgc9rkgrBa98ej-13" style="edgeStyle=orthogonalEdgeStyle;rounded=0;orthogonalLoop=1;jettySize=auto;html=1;" parent="1" edge="1">
          <mxGeometry relative="1" as="geometry">
            <mxPoint x="835" y="169" as="sourcePoint" />
            <mxPoint x="725" y="169" as="targetPoint" />
          </mxGeometry>
        </mxCell>
        <mxCell id="azLQEmrgc9rkgrBa98ej-14" value="lookup&amp;nbsp;&lt;br&gt;demo.demo.srv.cluster.local" style="text;html=1;align=center;verticalAlign=middle;resizable=0;points=[];autosize=1;" parent="1" vertex="1">
          <mxGeometry x="700" y="72.5" width="160" height="30" as="geometry" />
        </mxCell>
        <mxCell id="azLQEmrgc9rkgrBa98ej-15" value="service&amp;nbsp;&lt;br&gt;cluster ip" style="text;html=1;align=center;verticalAlign=middle;resizable=0;points=[];autosize=1;" parent="1" vertex="1">
          <mxGeometry x="750" y="125" width="60" height="30" as="geometry" />
        </mxCell>
        <mxCell id="azLQEmrgc9rkgrBa98ej-16" value="access ingress gateway" style="text;html=1;align=center;verticalAlign=middle;resizable=0;points=[];autosize=1;" parent="1" vertex="1">
          <mxGeometry x="360" y="230" width="140" height="20" as="geometry" />
        </mxCell>
        <mxCell id="azLQEmrgc9rkgrBa98ej-17" value="Envoy" style="rounded=0;whiteSpace=wrap;html=1;" parent="1" vertex="1">
          <mxGeometry x="555" y="230" width="120" height="60" as="geometry" />
        </mxCell>
        <mxCell id="azLQEmrgc9rkgrBa98ej-18" style="edgeStyle=orthogonalEdgeStyle;rounded=0;orthogonalLoop=1;jettySize=auto;html=1;exitX=0.5;exitY=1;exitDx=0;exitDy=0;entryX=0.5;entryY=0;entryDx=0;entryDy=0;" parent="1" source="azLQEmrgc9rkgrBa98ej-7" target="azLQEmrgc9rkgrBa98ej-17" edge="1">
          <mxGeometry relative="1" as="geometry">
            <mxPoint x="530" y="147.5" as="sourcePoint" />
            <mxPoint x="360" y="147.5" as="targetPoint" />
          </mxGeometry>
        </mxCell>
        <mxCell id="azLQEmrgc9rkgrBa98ej-19" value="ext cluster ip" style="text;html=1;align=center;verticalAlign=middle;resizable=0;points=[];autosize=1;" parent="1" vertex="1">
          <mxGeometry x="610" y="197.5" width="80" height="20" as="geometry" />
        </mxCell>
      </root>
    </mxGraphModel>
  </diagram>
</mxfile>
